<?xml version="1.0" encoding="UTF-8"?>
<svg width="150mm" height="93.265mm" version="1.1" viewBox="0 0 150 93.265" xmlns="http://www.w3.org/2000/svg">
 <defs>
  <style type="text/css"><![CDATA[
    .str0 {stroke:#333333;stroke-width:19.61;stroke-miterlimit:22.9256}
    .fil3 {fill:#3B8A93}
    .fil2 {fill:#EBA074}
    .fil0 {fill:white}
    .fil5 {fill:black;fill-rule:nonzero}
    .fil1 {fill:#333333;fill-rule:nonzero}
    .fil4 {fill:#CCCCCC;fill-rule:nonzero}
   ]]></style>
 </defs>
 <g transform="translate(-34.613 -17.624)">
  <g transform="matrix(.011304 0 0 .011304 34.613 17.623)" clip-rule="evenodd" fill-rule="evenodd" image-rendering="optimizeQuality" shape-rendering="geometricPrecision">
   <g id="Ribbon">
    <path id="W" class="fil0" d="m6310.5 2731.4c-558.26 2018.6-1804.3 3867.1-3552 5015-473.8 311.21-1612.5 891.48-1824.8-29.82-122.06-529.53 319.49-1386.7 722.99-1833.8 103.72-114.89 163.04-160.09 287.95-242.85-84.19 195.77-168.15 388.84-255.94 582.8-470.02 1038.5-712.51 2155.8 729.67 1044.5 1290.1-994.07 2257.8-2427.5 2772.9-3996.6 46.67-163.82 198.42-709.9 232.71-855.25 161.92-686.45 211.36-1393.5 175.46-2088.8l1039.3-49.53c4.57 527.13-40.49 1056.8-131.64 1580.5l-196.51 873.75z"/>
    <path id="W曲線" class="fil1 str0" d="m6335.5 2738.3c-284.76 1029.7-748.09 2015.3-1365.4 2886.9-596.22 841.79-1336.1 1577.1-2197.4 2142.8-224.76 147.64-598.19 355.4-953.4 437.28-159.51 36.76-315.68 48.29-453.87 18.04-140.59-30.77-262.25-104.35-349.8-237.63-46.29-70.48-82.82-157.45-107.21-263.33-56.78-246.34 4.92-560.15 127.66-871.45 146.25-370.94 379.48-739.62 601.31-985.41 52.78-58.47 94.38-99.29 138.76-136.11 44.13-36.6 90.86-69.06 154.16-111l72.45-48-34.34 79.83c-40.38 93.9-81.87 189.82-126.72 292.17-43.04 98.24-86.11 195.32-129.43 291.03-194.18 429.02-349.28 870.84-361.28 1160.3-4.52 108.98 11.22 194.89 52.99 247.94 39.77 50.5 106.02 71.73 204.62 54.93 168.9-28.78 425.12-165.56 793.91-449.73 635.53-489.7 1192.6-1086.5 1655.6-1753.7 473.5-682.49 848.52-1438.7 1108.2-2229.5 27.64-97.07 92.66-330.02 148.16-533.99 37.59-138.15 70.62-262.2 84.25-320.03 78.62-333.31 130.64-671.6 159.15-1011.1 30.01-357.27 34.02-715.56 15.7-1070.5l-1.33-25.92c364.01-17.46 728.04-34.76 1092.1-52.05l0.23 26.92c2.28 263.68-7.73 527.37-29.61 790.01-22.12 265.68-56.4 531.08-102.34 795.03-66.62 290.09-125.16 588.45-197.12 876.29zm-1407.6 2857.1c613.61-866.34 1074.3-1846.4 1357.5-2870.3l196.07-871.77c45.63-262.21 79.71-526.13 101.72-790.58 21.09-253.32 31.16-506.46 29.79-758.41l-986.45 47.01c16.96 349.19 12.43 701.04-16.99 1051.4-28.71 341.84-81.13 682.65-160.36 1018.6-14.06 59.66-47.17 184.08-84.66 321.88-55.17 202.8-120.4 436.47-148.35 534.6l-0.3 0.91c-261.24 795.82-638.62 1556.9-1115.2 2243.8-465.92 671.54-1026.7 1272.2-1666.5 1765.2-376.1 289.81-640.08 429.75-816.82 459.87-119.67 20.41-202.14-8.02-254.08-73.99-49.92-63.4-68.96-160.85-63.94-281.98 12.31-296.92 169.3-745.48 365.75-1179.5 44.46-98.23 87.28-194.71 129.21-290.42 29.3-66.89 59.94-137.51 91.39-210.41-27.9 19.66-52.59 38.23-76.44 58.01-42.4 35.18-82.36 74.42-133.29 130.84-218.19 241.76-447.63 604.51-591.58 969.6-119.28 302.54-179.64 605.84-125.42 841.05 23.01 99.84 57.03 181.2 99.92 246.5 79.26 120.66 189.73 187.35 317.55 215.33 130.23 28.51 278.82 17.32 431.38-17.85 348.14-80.25 715.34-284.67 936.57-429.98 855.84-562.15 1591-1292.9 2183.6-2129.5z"/>
    <path id="O" class="fil2" d="m5188.8 3278.2c-678.11 326.72-1291.6 749.81-1861.6 1193-387.64 301.34-709.24 681.64-1058.1 951.61-104.59 80.92-216.72 151.72-326.92 224.74l2.46-7.51c944.85-1253.3 2732.4-2744.4 5516.2-3766 1693-621.28 3471-1097.4 5263-1316.7l63.17 516.37c-2092.5 228.17-4444.2 684.94-6478.9 1665.3-373.1 179.76-746.19 359.53-1119.3 539.3z"/>
    <path id="O曲線" class="fil1 str0" d="m5200.1 3301.5c-338.06 162.88-660.01 349.8-968.48 551.2-308.18 201.21-603.59 417.44-888.5 638.92-197.38 153.44-377.54 327.37-552.89 496.67-168.94 163.11-333.49 321.97-505.28 454.94-85.31 66-175.7 125.38-265.99 184.66l-124.56 82.36 27.03-82.46 2.58-3.42c515.88-684.28 1282.1-1439.2 2323.5-2150.1 870.86-594.55 1934.2-1158.5 3204.5-1624.6 878.19-322.27 1779.3-605.55 2693.5-834.25 849.96-212.64 1711.1-378.11 2575.3-483.88l25.72-3.15 69.51 568.15-26.18 2.85c-1045.5 113.99-2155.5 285.06-3257.9 549.97-1102 264.81-2196.9 623.52-3212.5 1112.9l-1119.3 539.3zm-996.67 507.82c310.27-202.58 634.12-390.61 974.17-554.44l1119.3-539.3c1019-490.99 2117.4-850.87 3223.1-1116.6 1096.1-263.39 2198.8-434.16 3238.2-548.32l-56.84-464.58c-853.65 105.64-1704 269.51-2543.3 479.49-912.2 228.22-1811.6 510.95-2688.2 832.64-1266.1 464.63-2325.6 1026.5-3193.2 1618.8-980.59 669.48-1715.8 1377.8-2226.5 2028.5 69.13-45.78 137.65-92.49 203.22-143.22 169.38-131.09 333.03-289.08 501.02-451.29 176.68-170.57 358.2-345.82 556.93-500.31 285.16-221.66 581.56-438.57 892.15-641.35z"/>
    <path id="T" class="fil3" d="m1944.6 5640c77.68-237.09 125-342.88 274.92-557.61 672.14-962.63 2224.8-2095.5 3133.6-2620.3 22.65-13.07 45.51-26.16 68.38-39.09 448.62-253.44 793.65-424.06 1083.1-557.81 1915.7-885.41 4183.7-1523.4 6156.1-1824.3l63.18 516.38c-1792 219.31-3570 695.44-5263 1316.7-2783.8 1021.6-4571.4 2512.8-5516.2 3766z"/>
    <path id="T曲線" class="fil1 str0" d="m1920 5632c39.16-119.54 70.76-206.17 111.7-290.43 40.85-84.11 90.82-165.31 166.68-273.97 295.87-423.74 760.69-879.64 1266.2-1302.3 648.07-541.93 1363.7-1030 1875.6-1325.6 22.93-13.14 45.68-26.19 68.68-39.2 226.19-127.77 424.7-233.88 602.15-324.4 178.19-90.89 337.26-167.2 482.74-234.42 931.81-430.66 1946.9-802.88 2970.9-1106.3 1083.7-321.14 2177.1-565.25 3192.2-720.12l26.35-4.01 69.58 568.63-25.75 3.15c-862.29 105.53-1721.3 270.58-2569 482.66-912.2 228.22-1811.6 510.95-2688.2 832.64-1266.1 464.63-2325.6 1026.5-3193.2 1618.8-1036.2 707.43-1798.4 1458.2-2311.3 2138.6l-93.82 124.45zm158.32-267.93c-20.65 42.51-38.94 85.91-57.16 134.38 513.18-650.25 1248.4-1356.6 2226.3-2024.2 870.86-594.55 1934.2-1158.5 3204.5-1624.6 878.19-322.27 1779.3-605.55 2693.5-834.25 841.52-210.53 1694-374.8 2549.6-480.7l-56.79-464.12c-1005.7 154.77-2087.3 396.87-3158.9 714.44-1021.5 302.7-2034.2 674.04-2963.8 1103.7-143.93 66.51-302.12 142.42-480.92 233.62-179.55 91.57-377.9 197.53-600.33 323.18l-68.1 38.94c-509.67 294.39-1222.5 780.55-1868.3 1320.6-502.6 420.27-964.23 872.82-1257 1292.2-74.04 106.06-122.74 185.16-162.42 266.87z"/>
   </g>
   <path id="JESGO-outline" class="fil4" d="m1828.9 2697.7 416.97-16.52 2.26 2654.3c0.07 88.26-5.04 163.04-16.13 229.69-11.94 71.73-30.36 134.64-56.08 194.44-25.41 59.07-57.38 114.12-96.87 170.98l-0.25-0.18c-38.54 55.49-81.34 109.4-130.87 169.14-56.81 68.53-120.17 126.36-190.47 174.74-70.16 48.28-145.86 86.22-227.61 115.12-79.11 27.96-164.67 47.68-257.12 60.39-90.7 12.47-185.53 18.1-285.31 18.1-157.82 0-310.81-12.55-458.83-37.64-73.9-12.51-146.35-28.21-217.32-47.04-72.04-19.13-141.56-41.11-208.47-65.89h-0.54l-102.22-37.95c18.03-287.43 36.16-574.85 54.46-862.27 81.78 33.76 184.95 69.59 262.45 108.34 249.92 103.39 505 208.91 733.97 236.36 38.09 4.56 76.51 5.49 114.63 2.48 37.78-2.97 74.38-9.43 109.15-19.59 34.39-10.05 68.3-23.79 101.22-41.44 31.93-17.11 63-37.94 92.74-62.68 31.48-26.18 61.03-56.66 87.89-90.38 26.6-33.41 49.6-69.1 68.25-106.01 17.81-35.26 31.93-72.53 41.66-110.8 9.25-36.42 14.25-71.69 14.35-104.74l7.84-2525.3 140.28-5.67zm125.35 2695.3-2.93 11.98c-14.83 58.46-36.73 116.05-64.62 171.3-27.92 55.28-61.77 107.95-100.44 156.5-38.07 47.81-81.87 92.6-130.37 132.93-45.42 37.78-93.05 69.68-142.17 96-51.06 27.37-103.8 48.73-157.46 64.41-56.36 16.47-112.52 26.68-167.75 31.07-57.56 4.55-115.22 3.19-172.05-3.62-228.74-27.43-463.19-114.79-694.95-209.29l-14.65 232.42c27.32 8.48 54.75 16.36 82.29 23.62 61.05 16.11 123.65 29.62 187.7 40.46 64.3 10.89 131.09 19.16 200.29 24.78 67.78 5.51 137.9 8.27 210.3 8.27 90.3 0 172.25-4.55 245.77-14.63 71.8-9.84 138.05-25.07 199.03-46.62 58.34-20.62 111.13-46.86 158.6-79.52 47.32-32.56 90.81-72.51 130.82-120.77 45.8-55.24 84.3-103.55 115.75-148.78 28.75-41.36 51.49-80.14 68.61-119.93 16.9-39.28 28.93-80.32 36.65-126.85 6.18-37.24 9.97-77.97 11.62-123.74zm2581.6-2139.6h-1585.5v885.61h1631.9v689.59h-1631.9v738.72h1732.5v853.5h-2306.3v-3734.2h2306.3v566.74zm-1865.2 1179.7v101.48h1617.6v-101.48zm0 1428.3v265.39h1718.2v-265.39zm4187.2-2895.4-22.4 350.77-178.21-55.47c-75.2-23.39-168.03-50.29-269.83-74.2-101.12-23.75-209.84-44.38-316.38-55.27-103.38-10.58-205.84-12.38-298.48 0.61-83.47 11.69-158 35.46-215.53 76.11-20.82 14.71-42.27 31.91-62.09 51.77-19.99 20.01-38.96 42.89-54.98 68.9-15.66 25.42-29.18 55.01-38.97 89.51-10.34 36.41-16.4 77.23-16.4 122.89h0.54c0 52.83 12.97 103.59 36.38 151.23 26.94 54.83 68.23 107.44 120.32 156.26 57.21 53.61 127.58 101.87 206.71 142.97 81.51 42.35 171.52 76.37 265.38 100.23 171.27 43.53 316.98 101.53 440.33 170.9 135.79 76.35 244.42 166.66 330.14 266.89 94.35 110.31 160.06 231.88 203.03 359.62 46.86 139.27 66.11 285.19 65.84 431.18l-0.02 4.91c-1.01 159.01-35.57 308.7-96.82 443.87-63.9 141.01-157.22 267.1-272.08 372.25-113.23 103.66-246.59 186.34-392.45 242.2-141.07 54.01-295.23 83.5-455.63 83.2l-5.65-0.02c-93.37-0.6-185.95-6.19-275.57-16.89-90.8-10.84-181-26.66-268.63-47.57-84.55-20.16-168.52-45.66-250.33-76.58-78-29.49-153.22-63.98-224.1-103.55h-0.54l-80.36-44.98 5.32-86.34c13.4-217.22 25.44-406.36 37.5-596.12l19.59-307.79 214.19 151.36c62.61 44.2 127.7 86.68 194.85 125.11 65.32 37.39 131.43 70.22 197.43 95.99 64.68 25.25 129.43 44.1 193.36 54.23 62.37 9.88 124.87 11.84 186.87 3.79 87.07-11.3 162.54-29.42 227.18-52.58 66.17-23.72 120.63-52.75 164.22-85.04 43.28-32.06 74.98-66.91 96.1-102.33 20.14-33.79 30.41-67.9 31.72-99.99 1.89-46.21-5.42-93.86-23.56-141.01-17.64-45.89-45.91-92.35-86.29-137.9-39.2-44.2-90.63-87.64-155.78-129.08v-0.54c-62.41-39.71-137.53-76.93-226.58-110.51-142.03-53.52-279.46-123.45-405.19-205.38-126.3-82.3-240.73-176.6-336.2-278.52-94.3-100.67-171.22-209.88-224.4-323.76-52.42-112.24-81.63-229-81.86-346.83-0.31-153.72 26.03-286.43 73.67-400.15 53.19-126.98 131.97-229.94 229.38-311.79 103.32-86.8 226.36-148.63 360.86-189.34 140.83-42.65 296.25-62.13 455.49-63.07 101.78-0.59 192.3 3.83 274.33 12.41 84.84 8.87 161.37 21.97 232.39 38.41 72.24 16.71 138.58 36.66 201.98 58.98 63.85 22.48 123.14 46.57 181.72 71.88v0.54l95.09 41.14-6.64 102.48zm-1671 215.61c-33.35 39.53-61.32 84.71-82.76 136.03-33.38 79.86-51.81 174.9-51.59 286.87 0.14 73.44 19.67 148.9 54.72 223.7 39.37 84.06 98.51 167.1 172.29 245.88 80.05 85.46 176.19 164.64 282.41 233.84 107.75 70.2 226.04 130.31 348.71 176.55 107.33 40.45 200.69 87.16 281.08 138.38 88.1 56.11 160.01 117.57 217.28 182.16 64.93 73.25 111.2 150.12 141.01 227.83 32.68 85.18 45.84 171.94 42.36 256.65-3.27 79.78-26.6 161.06-72.08 237.68-40.15 67.65-97.71 132.07-174.07 188.64-65.14 48.25-144.64 90.96-239.4 125.01-84.08 30.2-180.49 53.57-289.83 67.76-90.4 11.75-180.11 9.13-268.64-4.85-87.68-13.85-172.82-38.25-255.16-70.4-77.52-30.26-154.06-67.92-228.98-110.41l-10.16-5.8-18.33 290.82c34.56 16.22 70.17 31.16 106.63 44.86 66.47 24.98 137.62 46.32 211.85 64.03 77.64 18.52 156.68 32.46 235.45 41.86 83.76 10 165.01 15.21 242.09 15.69l4.54 0.02c122.42 0.23 241.27-22.71 351.04-64.73 112.65-43.13 214.41-105.83 299.46-183.7 85.03-77.85 154.31-171.6 201.99-276.8 45.3-99.9 70.84-209.4 71.57-324.5l0.02-4.31c0.16-115.48-14.68-229.75-50.75-337.11-31.35-93.36-79.27-182.1-148.03-262.49-63.79-74.59-146.45-142.78-251.54-201.79-101-56.71-222.77-104.78-368.48-141.82-115.62-29.4-227.16-71.67-328.86-124.55-101.37-52.7-193.83-116.71-271.87-189.84-76.68-71.86-139.25-153.12-182.73-241.94-42.73-87.31-66.4-180.96-66.41-279.21-0.01-76.16 9.89-143.49 26.84-202.99 16.54-58.13 40.26-110.32 68.34-157.02zm3292.2 942.35h1500.3v2197.8l-122.9 20.68c-105.5 17.63-206.62 34.27-323.94 52.5-108.81 16.92-201.47 30.43-277.02 39.76-85.18 10.52-167.53 18.74-250.88 24.5-83.4 5.78-163.04 8.75-242.02 8.75v-0.54c-267.13-0.02-505.94-49.21-715.33-138.31-223.67-95.17-413.51-235.72-568.32-410.5-161.34-182.12-283.61-400.4-365.61-642.18-82.99-244.71-125.15-513.39-125.15-792.65 0-185.05 26.93-404.8 96.41-627.23 57.63-184.52 144.69-370.97 270.13-541.31 108.67-147.59 245.88-282.75 417.25-393.79 153.13-99.21 333.12-178.8 543.85-230.21 46.64-11.38 83.7-20.17 112.65-25.87 34.19-6.74 68.36-11.92 109.25-16.03 36.55-3.67 77.3-6.03 128.15-7.45 60.96-1.71 116.27-2.31 176.84-2.31 73.26 0 148.37 2.45 225.27 7.34 72.49 4.61 145.9 11.78 220.17 21.48 71.42 9.33 142.82 21.19 214.17 35.59 72.12 14.53 141.74 31.13 208.84 49.72l114.86 32.02-28.68 455.27-162.46-30.19c-92.58-17.1-200.06-30.39-314.29-38.18-108.41-7.39-220.32-9.72-328.43-5.57-96.42 3.71-191.95 12.73-281.65 28.11-79.12 13.56-151.02 31.67-211.41 54.94-120.89 46.57-231.81 103.8-330.41 174.43-96.12 68.85-179.61 149.97-248.08 245.84-69.42 97.2-124.82 210.78-163.98 343.45-40.4 136.89-63.71 293.57-67.59 472.85l-0.38 22.78c-0.28 26.42 0.41-16.04 0.41 24.04 0 177.47 22.03 341.63 66.71 487.12 42.56 138.59 105.5 261.07 189.29 362.66 85.27 103.38 193.43 186.32 325.12 243.79 129.02 56.31 280.98 88.6 456.56 92.4l17.24 0.28c28.41 0.3-19.16-0.44 18.55-0.44v0.25c271.67-13.14 393.74-52.57 527.2-109.37v-781.56h-957.75v-704.64h147.03zm1206.3 294.06h-1059.2v116.53h957.75v1267.4c-37.87 16.65-75.71 33.43-113.63 49.96-190.99 84.03-325.65 142.94-696.47 160.64l0.02 0.24-11.18 0.57c-22.44 0 15.64-0.23-20.48-0.66l-21.06-0.32c-216.15-4.67-405.53-45.5-568.61-116.78-174.84-76.43-319.13-187.42-433.62-326.23-108.69-131.78-189.47-287.68-243.08-461.87-54.04-175.61-80.69-368.97-80.69-574 0-21.53 0.24 12.89 0.69-25.85l0.42-26.71c4.49-207.52 31.83-389.97 79.28-550.49 48.71-164.78 118.43-307.04 206.29-430.06 88.81-124.36 194.87-228 315.46-314.43 118.09-84.65 251.12-153.3 396.28-209.21l20.23-7.55-28.93 6.95c-176.54 43.07-326.34 109.09-452.9 191.06-139.64 90.44-251.64 200.84-340.49 321.51-104.7 142.19-177.8 299.24-226.56 455.41-59.49 190.57-82.55 379.8-82.55 539.69 0 248.22 36.69 484.8 108.88 697.92 69.9 206.38 172.7 390.95 307.22 542.81 126.1 142.36 281.13 257 464.14 334.81 173.69 73.85 373.91 114.62 600.12 114.62v0.54c71.36 0 144.66-2.79 222.6-8.2 72.86-5.04 150.24-12.89 234.69-23.32 93.36-11.52 179.32-23.76 265.31-37.11 53.2-8.25 121.38-19.36 200.11-32.4v-1655.4zm1893.8 2049.4c-245.62-0.02-468.3-58.88-664.73-163.86-207.74-111-384.94-273.03-527.95-470.99-135.63-187.74-240.46-407.79-311.2-646.83-70.69-238.89-107.7-496.65-107.7-759.76v-3.98h0.54c0.4-186.1 26.75-399.14 88.77-610.53 53.54-182.51 133.64-364.74 246.52-529.08 133.27-194 311.56-363.06 544.78-479.14l-0.11-0.22c203-100.97 446.06-160.94 735.08-160.94v0.54l4.13-0.03c95.35 0.22 209.89 15.89 332.08 50 107.07 29.9 221.06 73.86 334.35 133.83 99.07 52.44 198.76 117.76 294.3 197.43 86.55 72.17 168.98 155.66 243.56 251.43 157.38 202.1 280.37 441.28 361.98 696.35 81.32 254.18 122.03 525.15 115.22 791.89-6.48 253.52-55.62 503.42-153.19 732.05-91.88 215.27-226.2 411.74-407.63 575.06-91.63 82.48-176.9 148.47-261.54 201.42-86.86 54.34-172.52 94.48-262.89 123.93-88.87 28.98-181 47.08-282.35 57.85-99.43 10.56-204.4 14.12-322.02 14.12zm-0.03-292.95c108.47 0 203.75-3.13 290.92-12.35 80.95-8.56 153.72-22.73 222.73-45.25 68.54-22.35 133.41-52.74 199.03-93.84 67.68-42.38 139.41-98.37 219.72-170.66 148.67-133.81 258.84-295.15 334.32-472.16 82.77-194.07 124.47-406.99 130-623.6 5.98-233.94-29.77-471.88-101.19-695.34l-0.16 0.05c-71.43-223.31-178.08-431.39-313.82-605.7-12.57-16.14-25.39-31.84-38.44-47.11 100.84 144.23 180.79 308.48 236.31 481.99 63.91 199.71 95.89 412.67 90.53 622.35-5.11 199.94-43.89 397.08-120.91 577.52-72.79 170.55-179.24 326.24-323.04 455.68-127.85 115.08-261.12 199.5-396.17 256.37-146.01 61.49-292.27 90.22-434.63 90.22-84.86 0-168.61-10.11-250.37-29.48-82.81-19.61-163.37-48.79-240.73-86.58-74.99-36.64-147.44-81.84-216.39-134.71-68.81-52.76-133.39-112.59-192.79-178.59-137.36-152.61-249.87-340.52-326.75-553.18-32.47-89.8-58.59-183.88-77.58-281.43 13.23 164.61 42.53 324.02 86.87 473.97 61.55 208.19 151.73 398.33 267.66 558.79 117.23 162.28 260.89 294.27 427.79 383.5 154.62 82.66 331.09 129 527.1 129v0.54zm-1051.4-1923c0 201.59 34.29 390.36 95.2 558.96 63.47 175.64 156.22 330.69 269.4 456.44 47.88 53.2 98.98 100.69 152.52 141.76 52.67 40.39 108.6 75.22 167.07 103.78 57.97 28.31 118.12 50.13 179.72 64.72 59.51 14.1 120.63 21.47 182.71 21.47 105.95 0 214.14-21.14 321.42-66.38 104.27-43.96 209.42-111.2 312.96-204.41 111.01-99.93 193.32-220.49 249.74-352.79 62.2-145.87 93.56-306.04 97.72-469.06 4.52-177.06-22.56-357.15-76.67-526.29-53.79-168.17-134.25-325.07-236.77-456.72-56.67-72.79-112.55-133.24-168.39-183.4-52.89-47.5-104.89-84.61-156.84-113.32-52-28.73-103.99-49.47-156.82-64.17-55.47-15.44-112.56-24.86-172-30.24-12.03-1.09-25.53-1.98-40.36-2.65-7.69-0.34-21.34-0.52-40.92-0.52-127.89 0-246.79 27.56-353.99 76.48-116.25 53.04-220.53 131.53-309.23 227.68-87.55 94.91-159.45 206.35-212.4 327.11-53.38 121.75-87.74 252.55-99.78 385.19-1.45 16.05-2.63 33.69-3.49 52.81-0.53 11.81-0.8 29.64-0.8 53.55z"/>
   <path id="JESGO" class="fil5" d="m1834.6 2844.2 264.89-10.5 2.14 2501.8c0.27 315.97-73.24 436.87-266.89 670.46s-467.23 314.94-847.36 314.94c-301.58 0-579.61-47.11-834.09-141.38l34.6-548.76c282.75 116.27 574.36 244.42 845.76 276.96 181.18 21.73 370.2-22.84 528.59-154.55 158.38-131.72 264.36-331.64 264.98-524.5l7.39-2384.5zm2701.2 262.21h-1732.5v1179.7h1631.9v395.53h-1631.9v1032.8h1732.5v559.45h-2012.2v-3440.1h2012.2v272.69zm2175.6-149.57-10.5 164.35c-312.98-97.38-917.4-252.29-1228.3-32.64-106.73 75.43-234.52 210.17-234.48 453.11 0.05 323.76 340.9 591.73 739.6 693.12 721.35 183.36 929.91 630.6 929.07 1086.2-1.07 565.06-497.64 1003.6-1075.6 999.95-326.7-2.09-677.8-75.38-947.95-226.2l40.07-635.77c267.04 188.49 570 344.07 875.32 304.39 446.39-57.98 639.15-280.79 647.3-479.52 9.66-235.15-150.24-497.41-586.96-662.03-509.57-192.05-952.05-608.12-952.89-1017.2-1.25-603.35 464.91-814.9 973.5-817.89 381.02-2.23 604.15 71.82 831.86 170.19zm1767.6 1314.2h1353.3v1926.8c-470.8 78.69-758.35 123.21-1069.7 123.21-1062.4-0.04-1627.4-838.63-1627.4-1837.2 0-546.67 251.08-1414.9 1215.1-1650.1 163.1-39.77 210.88-47.07 492.43-47.07 292.18 0 568.66 36.12 829.41 108.38l-10.82 171.65c-355.15-65.63-893.8-76.98-1215 46.76-532.15 205-886.94 596.76-903.68 1370.4-17.14 792.18 372.92 1382.5 1220 1382.5 362.63-16.88 482.41-76.01 674.23-160.12v-1024.6h-957.75v-410.59zm3100 2049.9c-910.72 0-1464.6-898.85-1464.6-1895 0.01-641.85 334.25-1639.3 1472.7-1636.8 278.19 0.6 763.18 158.18 1088.8 576.37 558.1 716.67 655.49 1946.3-66.39 2596-341.3 307.24-572.75 359.43-1030.6 359.43zm-1198.5-2069.5c0 1158.1 1060.8 1964.5 1926.2 1185.5 557.29-501.62 482.11-1450.9 51.26-2004.2-251.43-322.86-483.21-422.06-756.29-446.85-705.55-64.08-1221.2 596.72-1221.2 1265.5z"/>
  </g>
 </g>
</svg>
