<?xml version="1.0" encoding="UTF-8"?>
<svg width="100mm" height="100mm" clip-rule="evenodd" fill-rule="evenodd" image-rendering="optimizeQuality" shape-rendering="geometricPrecision" text-rendering="geometricPrecision" version="1.1" viewBox="0 0 3128.6 3128.6" xml:space="preserve" xmlns="http://www.w3.org/2000/svg">
 <defs>
  <style type="text/css">
   <![CDATA[
    .fil1 {fill:black}
    .fil0 {fill:#BF0000}
    .fil2 {fill:white;fill-rule:nonzero}
   ]]>
  </style>
 </defs>
   <path class="fil0" d="m312.86 0h2502.8c172.07 0 312.86 140.78 312.86 312.86v2502.8c0 172.07-140.78 312.86-312.86 312.86h-2502.8c-172.07 0-312.86-140.78-312.86-312.86v-2502.8c0-172.07 140.78-312.86 312.86-312.86z"/>
   <path class="fil1" d="m312.86 0h2502.8c172.07 0 312.86 140.78 312.86 312.86v2502.8c0 172.07-140.78 312.86-312.86 312.86h-2502.8c-172.07 0-312.86-140.78-312.86-312.86v-2502.8c0-172.07 140.78-312.86 312.86-312.86zm2502.8 125.14h-2502.8c-51.49 0-98.4 21.16-132.48 55.24s-55.24 80.99-55.24 132.48v2502.8c0 51.49 21.16 98.4 55.24 132.48s80.99 55.24 132.48 55.24h2502.8c51.49 0 98.4-21.16 132.48-55.24s55.24-80.99 55.24-132.48v-2502.8c0-51.49-21.16-98.4-55.24-132.48s-80.99-55.24-132.48-55.24z"/>
   <path class="fil2" d="m951.73 2668v126.92h-361.45v-1172.7h1948v1172.7h-361.45v-126.92h-1225.1zm1368.6-1467.9v179.35h-1512v-179.35c-108.53 69.9-229.01 138.88-361.45 206.94l-140.72-295.24c382.61-207.86 725.67-460.79 1029.2-758.78h458.03c303.51 297.99 646.57 550.92 1029.2 758.78l-140.72 295.24c-132.44-68.06-252.93-137.04-361.45-206.94zm-160.03-107.61c-200.5-139.8-399.17-309.95-595.99-510.45-196.82 200.5-395.49 370.66-595.99 510.45h1192zm16.56 1296.8v-477.34h-1225.1v477.34h1225.1z"/>
</svg>
