<?xml version="1.0" encoding="UTF-8"?>
<svg width="100mm" height="100mm" clip-rule="evenodd" fill-rule="evenodd" image-rendering="optimizeQuality" shape-rendering="geometricPrecision" text-rendering="geometricPrecision" version="1.1" viewBox="0 0 9681.4 9681.4" xml:space="preserve" xmlns="http://www.w3.org/2000/svg">
 <defs>
  <style type="text/css">
   <![CDATA[
    .fil1 {fill:black}
    .fil0 {fill:white}
    .fil2 {fill:#C51616;fill-rule:nonzero}
   ]]>
  </style>
 </defs>
   <path class="fil0" d="m968.14 0h7745.1c532.48 0 968.14 435.66 968.14 968.14v7745.1c0 532.48-435.66 968.14-968.14 968.14h-7745.1c-532.48 0-968.14-435.66-968.14-968.14v-7745.1c0-532.48 435.66-968.14 968.14-968.14z"/>
   <path class="fil1" d="m968.14 0h7745.1c532.48 0 968.14 435.66 968.14 968.14v7745.1c0 532.48-435.66 968.14-968.14 968.14h-7745.1c-532.48 0-968.14-435.66-968.14-968.14v-7745.1c0-532.48 435.66-968.14 968.14-968.14zm7745.1 387.26h-7745.1c-159.34 0-304.49 65.48-409.95 170.94s-170.94 250.61-170.94 409.95v7745.1c0 159.34 65.48 304.49 170.94 409.95s250.61 170.94 409.95 170.94h7745.1c159.34 0 304.49-65.48 409.95-170.94s170.94-250.61 170.94-409.95v-7745.1c0-159.34-65.48-304.49-170.94-409.95s-250.61-170.94-409.95-170.94z"/>
   <path class="fil2" d="m1662.8 4937v348.38h709.04v-348.38h-709.04zm709.04-696.73h-709.04v311.48h709.04v-311.48zm512.3-401.65h1323.8v1446.8h368.86v430.34h-368.86v348.37c0 106.56-1.37 189.21-4.1 247.96-2.74 58.74-12.3 114.75-28.7 168.03-16.39 53.29-35.52 90.17-57.37 110.66-21.86 20.5-59.43 38.94-112.71 55.33-53.28 16.4-108.61 25.96-165.99 28.7-57.38 2.73-139.34 4.1-245.91 4.1-68.3 0-243.18-6.84-524.61-20.5l-24.59-442.63c265.04 13.66 416.68 20.5 454.93 20.5 90.17 0 144.14-8.2 161.89-24.59 17.77-16.39 26.64-65.57 26.64-147.54v-348.37h-2024.6v975.43h-520.5v-975.43h-368.86v-430.34h368.86v-1446.8h1229.5v-266.39h-1463.2v-413.95h3532.9v413.95h-1557.4v266.39zm0 401.65v311.48h803.31v-311.48h-803.31zm803.31 696.73h-803.31v348.38h803.31v-348.38zm4032.1-561.48c-281.42-234.98-519.14-489.09-713.12-762.32-194 273.23-431.71 527.34-713.13 762.32h1426.3zm-991.82 836.09h520.5v-405.75h-520.5v405.75zm-536.9-405.75h-307.39v-118.86c-155.74 109.29-341.53 219.95-557.39 331.98l-213.12-454.93c248.64-125.68 446.73-236.34 594.27-331.98-207.66-196.73-364.77-341.54-471.32-434.43l344.27-327.88c191.26 166.68 366.12 326.52 524.6 479.52 147.54-120.22 285.52-259.57 413.95-418.04h-782.81v-418.04h1524.6c76.5 142.08 165.31 277.33 266.4 405.75 125.68-147.54 236.34-290.98 331.98-430.34l389.35 241.81c-109.28 163.94-247.27 337.44-413.94 520.5 71.04 68.31 147.54 132.52 229.51 192.63 158.48-180.34 286.9-344.27 385.26-491.82l385.25 241.81c-122.95 177.6-256.84 347-401.65 508.21 131.15 81.96 286.9 169.41 467.23 262.3l-213.12 454.93c-166.68-84.7-351.1-195.36-553.29-331.98v118.86h-348.37v405.75h991.82v442.63h-991.82v475.42c0 51.92 9.57 82.66 28.69 92.22 19.13 9.57 83.34 14.35 192.63 14.35h108.61c20.5 0 43.72-6.15 69.68-18.44 25.96-12.3 42.35-23.9 49.18-34.83s15.03-37.57 24.59-79.92c9.57-42.36 15.03-83.34 16.39-122.95 1.37-39.63 3.42-103.15 6.15-190.58l508.21 53.28c-5.46 155.75-10.24 269.13-14.34 340.18-4.1 71.03-19.81 144.13-47.14 219.26-27.32 75.14-51.91 123.64-73.77 145.49-21.85 21.86-72.41 43.72-151.64 65.58-79.23 21.85-153.01 33.47-221.32 34.83-68.3 1.37-181.7 2.05-340.18 2.05-218.58 0-373.64-8.2-465.17-24.59-91.53-16.4-152.33-45.09-182.38-86.07-30.06-40.99-45.09-110.66-45.09-209.02v-676.25h-561.48c-60.11 281.43-198.1 508.21-413.95 680.34-215.86 172.14-520.5 297.82-913.96 377.06l-163.95-454.93c267.77-54.65 475.43-129.79 622.97-225.42 147.54-95.62 250-221.32 307.39-377.05h-885.27v-442.63h950.84v-405.75z"/>
</svg>
