<?xml version="1.0" encoding="UTF-8"?>
<svg width="100mm" height="100mm" version="1.1" viewBox="0 0 100 100" xmlns="http://www.w3.org/2000/svg">
  <defs>
    <style type="text/css"><![CDATA[
    .fil0 {fill:black}
    .fil1 {fill:red;fill-rule:nonzero}
   ]]></style>
  </defs>
  <g transform="matrix(5.7032 0 0 5.7009 -91.638 -60.6)">
    <path d="m23.491 11.858-6.7252 13.514c-0.0949 0.13037-0.19756 0.44446-0.19792 0.76688 0 0.21006 0.0427 0.4103 0.11472 0.59221 0.072 0.18191 0.17335 0.34541 0.29094 0.48266 0.23516 0.2745 0.53524 0.4435 0.79478 0.44028 0.0654-2.62e-4 13.323-0.01013 13.989-0.0019 0.62573-0.0114 1.0019-0.41324 1.2301-0.92113 0.21667-0.48224 0.1148-0.923-0.094-1.3651l-6.6192-13.19c-0.28169-0.61285-0.78791-1.0456-1.4433-1.0455-0.65011-5.29e-4 -1.0992 0.40096-1.34 0.72806z" fill="#ffff00" stroke="#000"/>
    <g transform="translate(-104.85 -24.378)" fill="#ffffce" stroke-width=".26458" aria-label="!">
      <path d="m128.91 49.836v-1.8344h1.5522v1.8344zm0.0706-10.301h1.4111l-0.14111 7.2672h-1.1289z"/>
    </g>
  </g>
</svg>
