<?xml version="1.0" encoding="UTF-8"?>
<svg width="100mm" height="100mm" version="1.1" viewBox="0 0 100 100" xmlns="http://www.w3.org/2000/svg">
 <defs>
  <style type="text/css"><![CDATA[
    .fil1 {fill:black}
    .fil0 {fill:white}
    .fil2 {fill:#333333;fill-rule:nonzero}
   ]]></style>
 </defs>
 <g transform="scale(.031014)" clip-rule="evenodd" fill-rule="evenodd" image-rendering="optimizeQuality" shape-rendering="geometricPrecision">
  <path class="fil0" d="m322.43 0h2579.5c177.34 0 322.43 145.09 322.43 322.43v2579.5c0 177.34-145.09 322.43-322.43 322.43h-2579.5c-177.34 0-322.43-145.09-322.43-322.43v-2579.5c0-177.34 145.09-322.43 322.43-322.43z"/>
  <path class="fil1" d="m322.43 0h2579.5c177.34 0 322.43 145.09 322.43 322.43v2579.5c0 177.34-145.09 322.43-322.43 322.43h-2579.5c-177.34 0-322.43-145.09-322.43-322.43v-2579.5c0-177.34 145.09-322.43 322.43-322.43zm2579.5 128.97h-2579.5c-53.07 0-101.41 21.81-136.53 56.93s-56.93 83.46-56.93 136.53v2579.5c0 53.07 21.81 101.41 56.93 136.53s83.46 56.93 136.53 56.93h2579.5c53.07 0 101.41-21.81 136.53-56.93s56.93-83.46 56.93-136.53v-2579.5c0-53.07-21.81-101.41-56.93-136.53s-83.46-56.93-136.53-56.93z"/>
  <path class="fil2" d="m684.8 1551.4c-5.46-22.75-15.47-61.42-30.03-116.02-32.76 54.6-57.78 95.09-75.07 121.48zm477.74-180.18c58.24-50.96 104.65-109.2 139.23-174.72h-311.21c43.68 60.97 101.01 119.21 171.99 174.72zm-902.24-69.61 72.34-161.06c19.11 25.48 35.94 49.14 50.51 70.98 29.12-60.97 58.69-131.04 88.72-210.2l137.86 47.77c-38.22 93.73-84.17 191.1-137.86 292.1 5.46 8.19 12.51 18.88 21.16 32.08 8.64 13.19 14.79 22.52 18.43 27.98 49.14-81.9 96.46-167.89 141.96-257.98l131.04 57.33c-32.76 61.88-70.98 131.04-114.66 207.48l95.55-23.21c32.76 110.11 59.6 220.21 80.53 330.32l-117.39 23.2c-1.82-8.19-4.55-21.38-8.19-39.58l-96.91 6.82v522.78h-167.89v-511.86l-184.27 10.92-5.46-154.24 143.32-8.19c1.82-3.64 4.78-8.19 8.87-13.65s7.05-10.01 8.87-13.65c-54.6-79.17-110.11-157.88-166.52-236.14zm-8.19 843.55c20.93-128.31 35.49-252.06 43.68-371.27l122.85 9.55c-6.37 118.3-21.38 245.69-45.04 382.19l-121.48-20.47zm558.27-948.65v-144.69h672.93v144.69c-46.41 103.74-108.29 192.01-185.63 264.8 67.34 38.22 143.78 71.43 229.31 99.64l-47.77 147.42c-115.57-35.49-221.58-83.72-318.04-144.69-81.9 49.14-175.62 91.45-281.18 126.94l-54.6-143.32c71.89-20.93 139.22-48.23 202.01-81.9-64.61-54.6-123.3-116.48-176.08-185.63l128.31-83.26h-169.25zm440.88 854.47h264.8v144.69h-746.63v-140.59l-84.63 6.82c-4.55-91.91-13.19-188.36-25.93-289.37l116.02-15.02c13.65 94.64 23.66 192.46 30.03 293.47h267.53v-165.16h-240.23v-140.59h240.23v-110.56h178.81v110.56h233.41v140.59h-233.41zm1153.1-636.07v-191.1h290.74v-54.6h-383.56v245.69h92.82zm150.14 0h140.59v-76.44h-140.59zm-116.02 363.08h133.77v-69.61h-133.77zm-374-488.66-113.29 103.74c-64.61-72.8-141.95-154.24-232.04-244.33l117.38-105.1c81.9 83.72 157.88 165.61 227.95 245.69zm-339.88 221.12h298.93v424.5c16.38 28.21 33.67 49.59 51.87 64.15v-584.2h75.07v-383.56h707.05v383.56h70.98v380.82c0 44.59-0.91 78.72-2.73 102.37-1.82 23.66-4.78 44.82-8.87 63.47-4.09 18.66-12.06 31.4-23.89 38.22s-25.02 11.83-39.59 15.01c-14.56 3.19-35.49 4.78-62.79 4.78-21.84 0-76.89-2.28-165.16-6.83l-4.09-125.57h-182.91v73.71h-140.59v-365.81h405.39v278.45c4.55 0 9.55 0.23 15.01 0.68s8.65 0.68 9.56 0.68c19.11 0 30.26-2.96 33.44-8.87 3.19-5.91 4.78-25.25 4.78-58.01v-259.34h-530.97v475.01h-118.75c64.61 28.21 213.39 42.31 446.34 42.31h379.46l-9.55 144.69h-364.45c-173.81 0-305.98-8.87-396.52-26.62-90.55-17.75-158.11-48.91-202.7-93.5-53.69 48.23-115.11 95.55-184.27 141.96l-80.53-140.59c55.51-35.49 106.92-72.8 154.24-111.93v-322.13h-133.77v-147.42z"/>
 </g>
</svg>
