<?xml version="1.0" encoding="UTF-8"?>
<svg width="100mm" height="100mm" clip-rule="evenodd" fill-rule="evenodd" image-rendering="optimizeQuality" shape-rendering="geometricPrecision" text-rendering="geometricPrecision" version="1.1" viewBox="0 0 13948 13948" xml:space="preserve" xmlns="http://www.w3.org/2000/svg">
 <defs>
  <style type="text/css">
   <![CDATA[
    .fil1 {fill:black}
    .fil0 {fill:#1C4C77}
    .fil2 {fill:white;fill-rule:nonzero}
   ]]>
  </style>
 </defs>
   <path class="fil0" d="m1394.8 0h11158c767.13 0 1394.8 627.66 1394.8 1394.8v11158c0 767.13-627.66 1394.8-1394.8 1394.8h-11158c-767.13 0-1394.8-627.66-1394.8-1394.8v-11158c0-767.13 627.66-1394.8 1394.8-1394.8z"/>
   <path class="fil1" d="m1394.8 0h11158c767.13 0 1394.8 627.66 1394.8 1394.8v11158c0 767.13-627.66 1394.8-1394.8 1394.8h-11158c-767.13 0-1394.8-627.66-1394.8-1394.8v-11158c0-767.13 627.66-1394.8 1394.8-1394.8zm11158 557.92h-11158c-229.55 0-438.68 94.33-590.61 246.26s-246.26 361.06-246.26 590.61v11158c0 229.55 94.33 438.68 246.26 590.61s361.06 246.26 590.61 246.26h11158c229.55 0 438.68-94.33 590.61-246.26s246.26-361.06 246.26-590.61v-11158c0-229.55-94.33-438.68-246.26-590.61s-361.06-246.26-590.61-246.26z"/>
   <path class="fil2" d="m8757.6 9495.7c-467.45-803.68-828.28-1763.2-1082.5-2878.5-221.42 410.04-426.44 758.58-615.06 1045.6l-738.08-590.46c-8.2 1894.4-73.81 3218.8-196.82 3973.3 1172.7-483.85 2050.2-1000.5 2632.5-1550zm959.5-1316.2c434.64-869.29 701.16-2107.6 799.58-3715h-1845.2c-41.01 123.01-164.01 414.14-369.03 873.39l651.97-98.42c172.21 1221.9 426.44 2201.9 762.68 2940zm-3099.9-5338.8v1365.4h-2853.9c0 131.21-2.05 315.74-6.15 553.56-4.1 237.81-6.15 414.14-6.15 528.95h2583.3v651.97c705.28-1254.7 1271.1-2780.1 1697.6-4576.1l1476.2 172.21c-106.6 574.07-233.71 1094.8-381.34 1562.3h3567.4v1365.4h-664.27c-131.21 2263.4-598.66 3969.2-1402.4 5117.3 516.66 574.05 1209.6 1094.8 2078.9 1562.2l-738.08 1230.1c-959.49-500.26-1734.5-1066.1-2324.9-1697.6-672.47 582.25-1648.4 1148.1-2927.7 1697.6l-651.97-996.41c-90.2 393.65-215.27 651.97-375.18 774.99-159.91 123.01-387.49 184.52-682.72 184.52-311.64 0-836.48-41.01-1574.6-123.01l-24.6-1439.3c492.05 82.01 795.49 123.02 910.3 123.02 106.62 0 188.62-34.86 246.03-104.57s110.7-243.98 159.91-522.81c49.21-278.82 82.01-703.21 98.42-1273.2 16.4-569.95 24.6-1351.1 24.6-2343.4h-1131.7c-65.61 1435.1-200.92 2595.6-405.94 3481.3-205.02 885.69-512.56 1693.5-922.6 2423.4l-1217.8-1082.5c360.85-713.48 625.33-1617.6 793.44-2712.4s252.18-2614 252.18-4557.6h-885.69v-1365.4h1845.2v-1426.9h1574.6v1426.9h1869.8z"/>
</svg>
