<?xml version="1.0" encoding="UTF-8" standalone="no"?>
<svg width="100mm" height="100mm" clip-rule="evenodd" fill-rule="evenodd" image-rendering="optimizeQuality" shape-rendering="geometricPrecision" text-rendering="geometricPrecision" version="1.1" viewBox="0 0 1645.1 1645.09" xml:space="preserve" xmlns="http://www.w3.org/2000/svg">

 <defs
   id="defs855">
  <style
   id="style853"
   type="text/css">
   <![CDATA[
    .fil1 {fill:black}
    .fil0 {fill:white}
    .fil2 {fill:#FF6633;fill-rule:nonzero}
   ]]>
  </style>
 </defs>
 <g>
  <path
   style="display:inline"
   class="fil0"
   d="m 164.51,0 h 1316.08 c 90.48,0 164.51,74.03 164.51,164.51 v 1316.08 c 0,90.48 -74.03,164.51 -164.51,164.51 H 164.51 C 74.03,1645.1 0,1571.07 0,1480.59 V 164.51 C 0,74.03 74.03,0 164.51,0 Z"
   id="path858" /><path
   style="display:inline"
   id="_1"
   class="fil1"
   d="m 164.51,0 h 1316.08 c 90.48,0 164.51,74.03 164.51,164.51 v 1316.08 c 0,90.48 -74.03,164.51 -164.51,164.51 H 164.51 C 74.03,1645.1 0,1571.07 0,1480.59 V 164.51 C 0,74.03 74.03,0 164.51,0 Z M 1480.59,65.8 H 164.51 c -27.07,0 -51.74,11.13 -69.66,29.05 -17.92,17.92 -29.05,42.58 -29.05,69.66 v 1316.08 c 0,27.07 11.13,51.74 29.05,69.66 17.92,17.92 42.58,29.05 69.66,29.05 h 1316.08 c 27.07,0 51.74,-11.13 69.66,-29.05 17.92,-17.92 29.05,-42.58 29.05,-69.66 V 164.51 c 0,-27.07 -11.13,-51.74 -29.05,-69.66 -17.92,-17.92 -42.58,-29.05 -69.66,-29.05 z" /><path
   class="fil2"
   d="m 320.84,791.56 c -1.39,-6.5 -3.83,-15.55 -7.31,-27.16 -3.48,-11.61 -5.69,-19.5 -6.62,-23.68 -3.71,6.04 -9.29,14.97 -16.71,26.81 -7.43,11.84 -13,20.78 -16.71,26.81 l 47.36,-2.79 z m 90.53,-98.89 c -12.07,-26 -21.12,-44.8 -27.16,-56.41 l 49.45,-15.32 c -13,0.46 -32.96,0.7 -59.89,0.7 -21.36,40.86 -39.23,73.36 -53.63,97.5 l 39,-10.45 c 3.71,12.54 7.89,27.62 12.54,45.27 v -61.28 h 39.7 z m 123.27,0 c -6.5,-14.86 -16.48,-35.75 -29.95,-62.68 l 43.87,-13.93 c -27.86,1.86 -57.34,3.25 -88.45,4.18 13,26 24.14,50.14 33.43,72.43 h 41.09 z m 106.55,0 c 13.46,-36.22 23.45,-65.7 29.95,-88.45 -34.36,4.18 -64.54,7.43 -90.53,9.75 13,25.07 25.07,51.3 36.21,78.7 h 24.38 z m -220.77,84.27 c 0.46,-4.64 0.7,-12.07 0.7,-22.29 h -49.45 c 0.93,2.32 1.97,6.04 3.13,11.14 1.16,5.11 1.97,8.82 2.44,11.14 h 43.18 z m -17.41,280.66 c 41.32,-8.82 75.45,-18.57 102.37,-29.25 -15.79,-12.07 -33.89,-29.02 -54.32,-50.84 -13.47,27.86 -29.48,54.55 -48.05,80.09 z m 68.95,-130.93 c -3.71,11.14 -6.73,19.27 -9.05,24.38 L 504,926.67 h -32.03 z m 174.11,0 H 515.14 c 21.82,23.22 45.27,42.95 70.34,59.2 23.21,-16.71 43.41,-36.45 60.59,-59.2 z m -520.23,167.84 c 11.61,-69.64 19.27,-132.79 22.98,-189.43 l 59.2,4.87 c -3.25,60.36 -10.91,125.36 -22.98,195 l -59.2,-10.45 z M 313.18,908.56 367.5,900.9 c 2.32,16.25 4.41,33.66 6.27,52.23 17.64,-34.82 30.18,-71.27 37.61,-109.34 h -18.11 c 1.39,5.11 3.71,16.25 6.97,33.43 l -57.11,11.84 c -1.86,-9.28 -3.25,-16.48 -4.18,-21.59 l -35.52,2.09 v 178.28 c 9.29,-9.28 16.02,-16.48 20.2,-21.59 -3.71,-50.61 -7.2,-89.84 -10.45,-117.7 z M 364.72,549.9 c 162.5,0 290.41,-10.91 383.73,-32.73 l 17.41,69.64 c -9.75,2.79 -31.11,6.96 -64.07,12.54 l 49.45,11.84 c -5.57,20.89 -14.16,48.05 -25.77,81.48 h 37.61 v 61.98 H 504.01 c 0,9.75 -0.23,17.18 -0.7,22.29 H 769.34 V 843.8 H 494.95 c -0.46,2.32 -1.28,5.8 -2.44,10.45 -1.16,4.64 -1.97,8.13 -2.44,10.45 h 255.59 v 61.98 c -23.21,37.61 -51.77,70.11 -85.66,97.5 34.82,13.93 74.52,25.3 119.09,34.12 l -27.16,71.04 c -67.32,-13.93 -124.66,-32.5 -172.02,-55.71 -46.43,22.28 -100.29,40.86 -161.57,55.71 l -25.77,-57.8 c -16.25,20.43 -32.96,39 -50.14,55.71 l -39,-53.62 V 1137 H 219.16 V 875.84 l -82.88,5.57 -2.79,-78.7 52.93,-2.79 c 1.86,-2.79 4.64,-7.2 8.36,-13.23 3.71,-6.03 6.5,-10.45 8.36,-13.23 -30.18,-44.11 -55.94,-80.55 -77.3,-109.34 l 37.61,-82.18 c 2.32,3.25 4.76,6.73 7.31,10.45 2.55,3.71 5.34,7.89 8.36,12.54 3.02,4.64 5.46,8.12 7.31,10.45 18.11,-39 32.96,-73.82 44.57,-104.46 l 69.64,24.37 c -20.89,49.21 -43.87,97.96 -68.95,146.25 1.39,1.86 3.83,5.34 7.31,10.45 3.48,5.11 5.92,9.05 7.31,11.84 20.43,-34.82 42.25,-74.98 65.46,-120.48 l 58.5,25.77 -5.57,-59.2 z m 1043.1,458.94 V 630.68 h -123.96 v 378.16 z M 1175.91,707.98 v 75.21 h -84.96 c 36.21,56.64 71.73,112.59 106.55,167.84 V 553.37 h 298.77 v 568.98 h -88.45 v -38.3 h -123.96 v 38.3 H 1197.5 V 963.57 l -57.11,44.57 c -22.29,-46.43 -45.73,-92.62 -70.34,-138.59 v 267.43 h -84.27 v -213.8 c -19.96,50.14 -45.96,94.95 -78,134.41 L 861.12,982.38 C 912.66,921.1 949.57,854.7 971.85,783.2 h -96.11 v -75.21 h 110.04 v -90.53 c -34.36,3.71 -66.62,6.27 -96.8,7.66 l -6.96,-70.34 c 91.93,-5.11 181.77,-17.88 269.52,-38.3 l 23.68,67.55 c -32.03,8.82 -67.09,16.25 -105.16,22.28 v 101.68 h 105.86 z"
   id="path863" />
 </g>
</svg>
