<?xml version="1.0" encoding="UTF-8" standalone="no"?>
<svg
   xmlns:svg="http://www.w3.org/2000/svg"
   xmlns="http://www.w3.org/2000/svg"
   id="svg8"
   version="1.1"
   viewBox="0 0 99.999954 99.999954"
   height="99.999954mm"
   width="99.999954mm">
  <defs
     id="defs2">
    <style
       type="text/css"
       id="style24">
   <![CDATA[
    .fil0 {fill:black}
    .fil1 {fill:red;fill-rule:nonzero}
   ]]>
  </style>
  </defs>
  <g
     id="layer1">
    <g
       transform="scale(0.07966156)"
       id="g52"
       style="clip-rule:evenodd;fill-rule:evenodd;image-rendering:optimizeQuality;shape-rendering:geometricPrecision;text-rendering:geometricPrecision">
      <g
         id="_2483515764400">
<rect
   x="0"
   class="fil0"
   y="0"
   width="1255.3101"
   height="1255.3101"
   rx="125.53"
   ry="125.53"
   id="rect28" />

<path
   class="fil0"
   d="m 125.53,0 h 1004.25 c 69.04,0 125.53,56.49 125.53,125.53 v 1004.25 c 0,69.04 -56.49,125.53 -125.53,125.53 H 125.53 C 56.49,1255.31 0,1198.82 0,1129.78 V 125.53 C 0,56.49 56.49,0 125.53,0 Z M 1129.78,50.21 H 125.53 c -20.66,0 -39.48,8.49 -53.15,22.16 -13.67,13.67 -22.16,32.5 -22.16,53.15 v 1004.25 c 0,20.66 8.49,39.48 22.16,53.15 13.67,13.67 32.5,22.16 53.15,22.16 h 1004.25 c 20.66,0 39.48,-8.49 53.15,-22.16 13.67,-13.67 22.16,-32.5 22.16,-53.15 V 125.52 c 0,-20.66 -8.49,-39.48 -22.16,-53.15 -13.67,-13.67 -32.5,-22.16 -53.15,-22.16 z"
   id="path30" />

<path
   class="fil1"
   d="M 246.42,443.12 H 447.29 V 403.8 H 246.42 Z m -68.55,-88.21 h 337.98 c -27.28,-17.36 -52.43,-35.78 -75.46,-55.27 v 28.7 H 253.33 v -28.7 c -23.03,19.49 -48.18,37.91 -75.46,55.27 z m 201.94,182.28 c 6.38,-9.92 14.88,-25.86 25.51,-47.83 H 288.41 c 7.79,21.26 13.28,37.2 16.47,47.83 z M 346.86,198.68 c -18.07,25.51 -39.68,50.48 -64.83,74.93 H 411.69 C 386.54,249.17 364.93,224.19 346.86,198.68 Z M 182.12,192.3 v -54.2 h 197.69 c 9.92,18.42 21.43,35.96 34.54,52.61 16.3,-19.13 30.64,-37.73 43.04,-55.8 l 50.48,31.35 c -14.17,21.26 -32.06,43.75 -53.67,67.49 9.21,8.86 19.13,17.18 29.76,24.98 20.55,-23.38 37.2,-44.64 49.95,-63.77 l 49.95,31.35 c -15.94,23.03 -33.3,44.99 -52.08,65.9 17.01,10.63 37.2,21.97 60.58,34.01 l -24.98,57.92 c -15.23,-7.79 -32.06,-17.36 -50.48,-28.7 v 133.92 h -39.86 c -5.31,12.4 -13.28,28.34 -23.91,47.83 H 581.2 v 56.33 H 112.49 V 537.19 H 234.18 C 227.8,518.41 221.96,502.47 216.64,489.36 H 176.78 V 355.44 c -18.42,11.34 -35.25,20.9 -50.48,28.7 l -24.98,-57.92 c 32.24,-16.3 57.92,-30.64 77.05,-43.04 -26.93,-25.51 -47.3,-44.28 -61.11,-56.33 l 44.64,-42.51 c 24.8,21.61 47.47,42.34 68.02,62.18 19.13,-15.59 37.02,-33.66 53.67,-54.2 h -101.5 z"
   id="path32" />

<path
   id="_1"
   class="fil1"
   d="m 834.06,232.15 c -17.01,-14.53 -33.48,-32.42 -49.42,-53.67 -12.05,18.42 -26.04,36.31 -41.98,53.67 z m 134.98,263.58 c -13.82,14.53 -30.82,30.29 -51.02,47.3 15.59,1.06 26.93,1.59 34.01,1.59 7.79,0 12.58,-1.24 14.35,-3.72 1.77,-2.48 2.66,-10.1 2.66,-22.85 z m -292.28,-85.56 44.11,-10.1 c 7.44,27.99 14.17,59.87 20.19,95.65 l -44.11,9.57 c -6.02,-32.24 -12.75,-63.95 -20.19,-95.12 z m 139.76,68.02 c 6.73,-28.34 12.22,-55.44 16.47,-81.31 l 28.7,4.25 43.04,-33.48 c 20.9,23.74 38.79,45.88 53.67,66.43 l 10.63,-10.63 v -61.64 h -97.78 v 20.73 h -61.11 v 120.63 c 35.43,-10.27 57.57,-16.83 66.43,-19.66 l 2.66,18.07 c 8.86,-6.38 21.43,-16.3 37.73,-29.76 -15.23,-20.9 -29.76,-39.32 -43.58,-55.27 -2.83,16.65 -7.62,40.03 -14.35,70.15 l -42.51,-8.5 z m 300.25,-336.92 v 164.21 h 32.95 v 56.33 h -112.66 c 7.79,20.19 16.83,39.68 27.1,58.46 15.94,-13.82 32.95,-31.35 51.02,-52.61 l 37.73,39.86 c -18.42,22.32 -37.91,42.34 -58.46,60.05 20.55,28.7 43.04,53.14 67.49,73.34 l -41.98,51.55 c -32.95,-30.82 -61.29,-71.39 -85.03,-121.69 v 40.39 c 0,14.53 -0.18,25.86 -0.53,34.01 -0.35,8.15 -1.51,15.94 -3.45,23.38 -1.95,7.44 -4.25,12.84 -6.91,16.21 -2.66,3.37 -7,6.29 -13.02,8.77 -6.02,2.48 -12.67,3.99 -19.93,4.52 -7.26,0.53 -16.92,0.8 -28.96,0.8 -7.44,0 -24.44,-0.89 -51.02,-2.66 l -2.66,-44.64 c -18.07,14.53 -36.49,28.17 -55.27,40.92 l -27.1,-37.2 c -53.85,15.94 -103.8,28.34 -149.86,37.2 l -7.44,-55.27 c 24.45,-4.96 50.84,-10.8 79.18,-17.54 V 382.55 h -72.27 v -54.74 h 72.27 V 285.3 h -40.92 v -17.01 c -11.34,10.98 -22.5,20.37 -33.48,28.16 l -12.75,-66.43 c 31.53,-24.09 61.47,-55.98 89.81,-95.65 h 62.18 c 27.63,31.53 54.91,55.98 81.84,73.34 l -31.35,47.3 v 30.29 h -53.14 v 42.51 h 57.39 v -22.32 h 179.62 V 276.26 H 889.33 v -50.48 h 157.83 v -28.7 H 886.14 v -55.8 h 230.63 z" />

<path
   id="_2"
   class="fil1"
   d="M 354.83,912.63 H 501.5 V 836.64 H 354.83 Z m -193.97,205.13 c -7.08,0 -23.91,-0.89 -50.48,-2.66 l -2.66,-55.8 c 23.03,1.77 37.55,2.66 43.58,2.66 3.9,0 6.2,-1.15 6.91,-3.45 0.71,-2.3 1.06,-9.3 1.06,-20.99 v -73.87 c -26.22,6.02 -43.4,9.92 -51.55,11.69 l -4.25,-60.58 c 15.59,-2.83 34.19,-6.91 55.8,-12.22 V 786.69 h -54.74 v -56.86 h 54.74 v -80.78 h 66.96 v 80.78 h 43.58 v 56.86 h -43.58 v 97.78 c 12.4,-3.9 25.33,-8.15 38.79,-12.75 l 7.97,58.45 c -9.21,3.54 -24.8,8.68 -46.76,15.41 v 87.15 c 0,20.9 -0.53,36.4 -1.59,46.5 -1.06,10.1 -4.16,18.42 -9.3,24.98 -5.14,6.55 -11.51,10.45 -19.13,11.69 -7.62,1.24 -19.4,1.86 -35.34,1.86 z m 193.97,-79.18 h 234.89 v 58.99 H 354.83 v 23.38 H 285.22 V 660.21 h 299.72 v 58.99 h -230.1 v 63.24 h 212.57 v 184.4 H 354.84 v 71.74 z" />

<path
   id="_3"
   class="fil1"
   d="m 790.48,1090.65 v 24.44 H 720.86 V 905.18 h 375.18 v 209.91 h -69.62 v -24.44 H 790.47 Z m 176.43,-341.7 c 63.77,24.44 125.95,53.67 186.53,87.68 l -30.82,54.2 C 1058.5,854.34 998.62,824.58 943,801.55 v 91.4 h -69.08 v -92.47 c -54.91,35.78 -116.03,65.9 -183.34,90.34 l -26.57,-55.8 C 758.25,801.36 831.94,763.99 885.08,722.89 H 682.61 V 665.5 h 451.7 v 57.39 H 972.23 c -9.21,8.86 -18.95,17.54 -29.23,26.04 v 43.04 l 23.91,-43.04 z m 59.52,288.03 V 960.46 H 790.48 v 76.52 z" />

</g>
    </g>
  </g>
</svg>
