<?xml version="1.0" encoding="UTF-8"?>
<svg width="100mm" height="100mm" clip-rule="evenodd" fill-rule="evenodd" image-rendering="optimizeQuality" shape-rendering="geometricPrecision" text-rendering="geometricPrecision" version="1.1" viewBox="0 0 2022.7 2022.7" xml:space="preserve" xmlns="http://www.w3.org/2000/svg">
 <defs>
  <style type="text/css">
   <![CDATA[
    .fil1 {fill:black}
    .fil0 {fill:#545454}
    .fil2 {fill:white;fill-rule:nonzero}
   ]]>
  </style>
 </defs>
   <path class="fil0" d="m202.27 0h1618.2c111.25 0 202.27 91.02 202.27 202.27v1618.2c0 111.25-91.02 202.27-202.27 202.27h-1618.2c-111.25 0-202.27-91.02-202.27-202.27v-1618.2c0-111.25 91.02-202.27 202.27-202.27z"/>
   <path class="fil1" d="m202.27 0h1618.2c111.25 0 202.27 91.02 202.27 202.27v1618.2c0 111.25-91.02 202.27-202.27 202.27h-1618.2c-111.25 0-202.27-91.02-202.27-202.27v-1618.2c0-111.25 91.02-202.27 202.27-202.27zm1618.2 80.91h-1618.2c-33.29 0-63.62 13.68-85.65 35.71s-35.71 52.36-35.71 85.65v1618.2c0 33.29 13.68 63.62 35.71 85.65s52.36 35.71 85.65 35.71h1618.2c33.29 0 63.62-13.68 85.65-35.71s35.71-52.36 35.71-85.65v-1618.2c0-33.29-13.68-63.62-35.71-85.65s-52.36-35.71-85.65-35.71z"/>
   <path class="fil2" d="m379.08 1152.2c-23.98-18.84-56.23-41.96-96.76-69.36-24.55 30.83-44.53 53.66-59.94 68.5l-57.37-77.92c39.39-42.24 74.5-91.34 105.32-147.28 30.83-55.94 53.66-112.46 68.5-169.54h-151.56v-92.48h743.25v92.48h-223.49v220.92c60.51-28.54 120.16-62.51 178.96-101.9l48.81 86.48c-78.21 51.38-154.13 92.77-227.77 124.16v176.39c0 13.7 1.14 21.84 3.42 24.4 2.28 2.57 8.85 4.43 19.7 5.57 15.98 1.14 27.97 1.71 35.96 1.71 7.42 0 20.27-0.57 38.53-1.71 14.84-1.14 23.98-8.28 27.4-21.41s6.56-54.8 9.42-125.02l97.62 8.56c-2.28 45.67-4.57 80.63-6.85 104.9-2.28 24.26-5.14 45.67-8.56 64.22s-9.28 31.4-17.55 38.53c-8.28 7.13-16.84 12.27-25.69 15.41s-22.69 5.56-41.53 7.28c-22.83 2.28-48.24 3.42-76.21 3.42-27.4 0-52.52-0.86-75.35-2.57-41.1-2.28-66.79-8.42-77.07-18.41s-15.41-34.39-15.41-73.21v-537.74h-154.13c-8.56 37.1-18.55 70.21-29.97 99.33h150.7v83.92c-10.85 104.46-43.53 195.8-98.04 274.01-54.52 78.21-126.87 138.72-217.07 181.53l-65.93-79.63c83.35-39.39 149.56-93.91 198.66-163.55zm46.24-83.91c15.98-35.96 27.97-78.78 35.96-128.44h-88.2c-10.28 20.55-22.26 42.24-35.96 65.08 12.56 8.56 41.96 29.69 88.2 63.37zm1406.7-205.51h-522.33v353.64c0 25.69 2.43 41.39 7.28 47.1s19.27 9.13 43.24 10.28c45.67 2.85 88.2 4.28 127.59 4.28 67.36 0 166.12-3.42 296.27-10.28l3.42 98.47c-101.61 6.28-201.51 9.42-299.7 9.42-45.67 0-95.62-1.43-149.85-4.28-25.12-1.71-44.24-3.14-57.37-4.28s-26.12-4-38.96-8.56c-12.84-4.57-21.55-9.28-26.12-14.13s-8.85-13.56-12.84-26.12c-4-12.56-6.28-25.54-6.85-38.96-0.57-13.41-0.86-32.68-0.86-57.8v-358.78h-99.33v-98.47h310.83v-130.16h114.74v130.16h310.83v98.47z"/>
</svg>
