<?xml version="1.0" encoding="UTF-8"?>
<svg width="100mm" height="100mm" clip-rule="evenodd" fill-rule="evenodd" image-rendering="optimizeQuality" shape-rendering="geometricPrecision" text-rendering="geometricPrecision" version="1.1" viewBox="0 0 4898.7 4898.7" xml:space="preserve" xmlns="http://www.w3.org/2000/svg">
 <defs>
  <style type="text/css">
   <![CDATA[
    .fil1 {fill:black}
    .fil0 {fill:#03B152}
    .fil2 {fill:white;fill-rule:nonzero}
   ]]>
  </style>
 </defs>
   <path class="fil0" d="m489.87 0h3918.9c269.43 0 489.87 220.44 489.87 489.87v3918.9c0 269.43-220.44 489.87-489.87 489.87h-3918.9c-269.43 0-489.87-220.44-489.87-489.87v-3918.9c0-269.43 220.44-489.87 489.87-489.87z"/>
   <path class="fil1" d="m489.87 0h3918.9c269.43 0 489.87 220.44 489.87 489.87v3918.9c0 269.43-220.44 489.87-489.87 489.87h-3918.9c-269.43 0-489.87-220.44-489.87-489.87v-3918.9c0-269.43 220.44-489.87 489.87-489.87zm3918.9 195.95h-3918.9c-80.62 0-154.07 33.13-207.43 86.49s-86.49 126.81-86.49 207.43v3918.9c0 80.62 33.13 154.07 86.49 207.43s126.81 86.49 207.43 86.49h3918.9c80.62 0 154.07-33.13 207.43-86.49s86.49-126.81 86.49-207.43v-3918.9c0-80.62-33.13-154.07-86.49-207.43s-126.81-86.49-207.43-86.49z"/>
   <path class="fil2" d="m2872.7 1676c227.54-106.57 421.95-239.06 583.25-397.47h-1188.1c178.58 158.41 380.19 290.9 604.85 397.47zm-548.69 838.15h1205.4v-125.29c-233.3-63.36-450.76-136.81-652.38-220.34-138.25 60.48-322.58 128.17-553 203.06v142.58zm-21.6 760.38h1227v-336.99h-1205.4c0 103.69-7.2 216.02-21.6 336.99zm-1123.3-743.1c-239.06-221.78-499.72-437.79-781.98-648.05l311.07-375.87c267.86 192.97 518.44 394.59 751.74 604.85 311.07-66.24 593.33-139.69 846.79-220.34-216.02-126.73-416.2-266.42-600.53-419.08l285.14-194.41h-475.24l-203.06 250.58c-221.78-201.61-456.52-394.59-704.22-578.93l311.07-375.87c184.33 129.61 375.87 279.38 574.6 449.32v-198.73h1131.9v-371.55h565.96v371.55h1196.7v453.64h-241.94c-204.5 236.18-443.56 437.79-717.18 604.85 282.27 86.41 640.85 171.38 1075.8 254.9l-103.69 453.64c-112.33-23.04-220.34-44.65-324.03-64.81v1827.5h-548.69v-656.7h-1313.4c-86.41 276.51-230.42 518.45-432.03 725.82l-470.92-306.75c164.17-161.29 283.7-338.43 358.59-531.4 74.89-192.98 112.33-420.52 112.33-682.62v-380.2c-97.93 25.92-220.34 53.29-367.23 82.09l-60.48-293.78-177.14 220.34zm375.88 423.4c-141.14 518.44-348.51 987.92-622.13 1408.4l-449.32-285.15c247.7-391.71 449.32-825.19 604.85-1300.4l466.6 177.14z"/>
</svg>
