<?xml version="1.0" encoding="UTF-8"?>
<svg width="100mm" height="100mm" clip-rule="evenodd" fill-rule="evenodd" image-rendering="optimizeQuality" shape-rendering="geometricPrecision" text-rendering="geometricPrecision" version="1.1" viewBox="0 0 3320.1 3320.1" xml:space="preserve" xmlns="http://www.w3.org/2000/svg">
 <defs>
  <style type="text/css">
   <![CDATA[
    .fil1 {fill:black}
    .fil0 {fill:#F53E8C}
    .fil2 {fill:white;fill-rule:nonzero}
   ]]>
  </style>
 </defs>
   <path class="fil0" d="m332.01 0h2656.1c182.61 0 332.01 149.4 332.01 332.01v2656.1c0 182.61-149.4 332.01-332.01 332.01h-2656.1c-182.61 0-332.01-149.4-332.01-332.01v-2656.1c0-182.61 149.4-332.01 332.01-332.01z"/>
   <path class="fil1" d="m332.01 0h2656.1c182.61 0 332.01 149.4 332.01 332.01v2656.1c0 182.61-149.4 332.01-332.01 332.01h-2656.1c-182.61 0-332.01-149.4-332.01-332.01v-2656.1c0-182.61 149.4-332.01 332.01-332.01zm2656.1 132.8h-2656.1c-54.64 0-104.42 22.45-140.59 58.62s-58.62 85.94-58.62 140.59v2656.1c0 54.64 22.45 104.42 58.62 140.59s85.94 58.62 140.59 58.62h2656.1c54.64 0 104.42-22.45 140.59-58.62s58.62-85.94 58.62-140.59v-2656.1c0-54.64-22.45-104.42-58.62-140.59s-85.94-58.62-140.59-58.62z"/>
   <path class="fil2" d="m526.86 693.76h942.86v-348.45h380.66v348.45h942.86v316.24h-942.86v386.51h1054.1v316.24h-890.16c245.97 288.91 582.7 562.21 1010.2 819.88l-184.47 322.1c-407.99-263.53-737.89-551.47-989.71-863.8v983.86h-380.66v-989.71c-261.58 324.05-591.49 613.93-989.71 869.66l-184.47-322.1c427.51-257.68 764.24-530.97 1010.2-819.88h-890.16v-316.24h1054.1v-386.51h-942.86v-316.24z"/>
</svg>
