<?xml version="1.0" encoding="UTF-8"?>
<svg width="100mm" height="100mm" clip-rule="evenodd" fill-rule="evenodd" image-rendering="optimizeQuality" shape-rendering="geometricPrecision" text-rendering="geometricPrecision" version="1.1" viewBox="0 0 5375.2 5375.2" xml:space="preserve" xmlns="http://www.w3.org/2000/svg">
 <defs>
  <style type="text/css">
   <![CDATA[
    .fil1 {fill:black}
    .fil0 {fill:#FF6200}
    .fil2 {fill:white;fill-rule:nonzero}
   ]]>
  </style>
 </defs>
   <path class="fil0" d="m537.52 0h4300.2c295.64 0 537.52 241.88 537.52 537.52v4300.2c0 295.64-241.88 537.52-537.52 537.52h-4300.2c-295.64 0-537.52-241.88-537.52-537.52v-4300.2c0-295.64 241.88-537.52 537.52-537.52z"/>
   <path class="fil1" d="m537.52 0h4300.2c295.64 0 537.52 241.88 537.52 537.52v4300.2c0 295.64-241.88 537.52-537.52 537.52h-4300.2c-295.64 0-537.52-241.88-537.52-537.52v-4300.2c0-295.64 241.88-537.52 537.52-537.52zm4300.2 215.01h-4300.2c-88.47 0-169.06 36.35-227.61 94.9s-94.9 139.14-94.9 227.61v4300.2c0 88.47 36.35 169.06 94.9 227.61s139.14 94.9 227.61 94.9h4300.2c88.47 0 169.06-36.35 227.61-94.9s94.9-139.14 94.9-227.61v-4300.2c0-88.47-36.35-169.06-94.9-227.61s-139.14-94.9-227.61-94.9z"/>
   <path class="fil2" d="m1820.1 1858v2958.2h-621.02v-2104.8c-167.5 240.19-320.79 426.66-459.84 559.4l-279.7-583.1c297.08-284.43 539.64-592.58 727.69-924.42s337.37-723.73 447.99-1175.7l564.14 90.07c-79.01 436.14-205.43 829.61-379.25 1180.4zm744.28-1189.9h621.02v1351.1c414.01-224.39 839.09-526.21 1275.2-905.46l374.51 431.4c-556.24 477.22-1106.2 846.99-1649.7 1109.3v1303.7c0 116.94 7.11 187.26 21.33 210.96s59.26 38.71 135.11 45.03c88.49 9.48 184.89 14.22 289.18 14.22 91.65 0 189.63-4.74 293.92-14.22 116.94-12.64 188.05-71.11 213.33-175.4s47.4-444.03 66.37-1019.2l587.84 66.37c-9.48 268.64-18.96 481.96-28.45 639.98-9.48 158.02-25.28 303.4-47.4 436.14s-45.03 229.13-68.74 289.18c-23.7 60.05-62.42 112.98-116.15 158.81-53.73 45.82-108.25 75.06-163.55 87.7-55.31 12.64-135.11 23.7-239.4 33.18-132.74 15.8-292.34 23.7-478.8 23.7-173.82 0-335-4.74-483.55-14.22-268.63-15.8-436.14-62.42-502.51-139.85s-99.55-267.85-99.55-571.24v-3361.1z"/>
</svg>
