<?xml version="1.0" encoding="UTF-8"?>
<svg width="100mm" height="100mm" clip-rule="evenodd" fill-rule="evenodd" image-rendering="optimizeQuality" shape-rendering="geometricPrecision" text-rendering="geometricPrecision" version="1.1" viewBox="0 0 2291.2 2291.2" xml:space="preserve" xmlns="http://www.w3.org/2000/svg">
 <defs>
  <style type="text/css">
   <![CDATA[
    .fil1 {fill:black}
    .fil0 {fill:#096E54}
    .fil2 {fill:white;fill-rule:nonzero}
   ]]>
  </style>
 </defs>
   <path class="fil0" d="m229.12 0h1833c126.02 0 229.12 103.1 229.12 229.12v1833c0 126.02-103.1 229.12-229.12 229.12h-1833c-126.02 0-229.12-103.1-229.12-229.12v-1833c0-126.02 103.1-229.12 229.12-229.12z"/>
   <path class="fil1" d="m229.12 0h1833c126.02 0 229.12 103.1 229.12 229.12v1833c0 126.02-103.1 229.12-229.12 229.12h-1833c-126.02 0-229.12-103.1-229.12-229.12v-1833c0-126.02 103.1-229.12 229.12-229.12zm1833 91.65h-1833c-37.71 0-72.06 15.5-97.02 40.45-24.96 24.96-40.45 59.31-40.45 97.02v1833c0 37.71 15.5 72.06 40.45 97.02 24.96 24.96 59.31 40.45 97.02 40.45h1833c37.71 0 72.06-15.5 97.02-40.45 24.96-24.96 40.45-59.31 40.45-97.02v-1833c0-37.71-15.5-72.06-40.45-97.02-24.96-24.96-59.31-40.45-97.02-40.45z"/>
   <path class="fil2" d="m234.26 1287h812.33v-230.36h-713.31v-218.24h713.31v-212.17c-188.6 13.47-397.41 20.21-626.42 20.21l-14.15-224.3c273.47 0 541.89-13.81 805.26-41.42 263.37-27.62 483.29-64.33 659.76-110.13l54.56 224.3c-158.96 41.76-361.71 76.79-608.23 105.08v238.44h640.57v218.24h-640.57v230.36h739.58v224.3h-739.58v206.11c0 52.54-1.01 94.64-3.03 126.29-2.02 31.66-7.07 60.96-15.15 87.9s-17.85 46.47-29.3 58.6-29.98 22.56-55.57 31.32c-25.6 8.76-52.54 14.15-80.83 16.17s-67.36 3.03-117.2 3.03c-70.05 0-187.93-3.37-353.63-10.1l-12.12-222.28c148.19 6.74 250.57 10.1 307.15 10.1 41.76 0 67.02-4.38 75.78-13.14s13.14-34.69 13.14-77.8v-216.22h-812.33v-224.3z"/>
</svg>
